HIERARCHY
ROOT Hips
{
	OFFSET -0.001795 -0.223333 0.028219
	CHANNELS 6 Xposition Yposition Zposition Zrotation Yrotation Xrotation 
	JOINT LeftUpLeg
	{
		OFFSET 0.069520 -0.091406 -0.006815
		CHANNELS 3 Zrotation Yrotation Xrotation
		JOINT LeftLeg
		{
			OFFSET 0.034277 -0.375199 -0.004496
			CHANNELS 3 Zrotation Yrotation Xrotation
			JOINT LeftFoot
			{
				OFFSET -0.013596 -0.397961 -0.043693
				CHANNELS 3 Zrotation Yrotation Xrotation
				JOINT LeftToe
				{
					OFFSET 0.026358 -0.055791 0.119288
					CHANNELS 3 Zrotation Yrotation Xrotation
					End Site
					{
						OFFSET 0.000000 0.000000 0.000000
					}
				}
			}
		}
	}
	JOINT RightUpLeg
	{
		OFFSET -0.067670 -0.090522 -0.004320
		CHANNELS 3 Zrotation Yrotation Xrotation
		JOINT RightLeg
		{
			OFFSET -0.038290 -0.382569 -0.008850
			CHANNELS 3 Zrotation Yrotation Xrotation
			JOINT RightFoot
			{
				OFFSET 0.015774 -0.398415 -0.042312
				CHANNELS 3 Zrotation Yrotation Xrotation
				JOINT RightToe
				{
					OFFSET -0.025372 -0.048144 0.123348
					CHANNELS 3 Zrotation Yrotation Xrotation
					End Site
					{
						OFFSET 0.000000 0.000000 0.000000
					}
				}
			}
		}
	}
	JOINT Spine
	{
		OFFSET -0.002533 0.108963 -0.026696
		CHANNELS 3 Zrotation Yrotation Xrotation
		JOINT Spine1
		{
			OFFSET 0.005487 0.135180 0.001092
			CHANNELS 3 Zrotation Yrotation Xrotation
			JOINT Spine2
			{
				OFFSET 0.001457 0.052922 0.025425
				CHANNELS 3 Zrotation Yrotation Xrotation
				JOINT Neck
				{
					OFFSET -0.002778 0.213870 -0.042857
					CHANNELS 3 Zrotation Yrotation Xrotation
					JOINT Head
					{
						OFFSET 0.005152 0.064970 0.051349
						CHANNELS 3 Zrotation Yrotation Xrotation
						End Site
						{
							OFFSET 0.000000 0.000000 0.000000
						}
					}
				}
				JOINT LeftShoulder
				{
					OFFSET 0.078845 0.121749 -0.034090
					CHANNELS 3 Zrotation Yrotation Xrotation
					JOINT LeftArm
					{
						OFFSET 0.090977 0.030469 -0.008868
						CHANNELS 3 Zrotation Yrotation Xrotation
						JOINT LeftForeArm
						{
							OFFSET 0.259612 -0.012772 -0.027456
							CHANNELS 3 Zrotation Yrotation Xrotation
							JOINT LeftHand
							{
								OFFSET 0.249234 0.008986 -0.001171
								CHANNELS 3 Zrotation Yrotation Xrotation
								End Site
								{
									OFFSET 0.000000 0.000000 0.000000
								}
							}
						}
					}
				}
				JOINT RightShoulder
				{
					OFFSET -0.081759 0.118833 -0.038615
					CHANNELS 3 Zrotation Yrotation Xrotation
					JOINT RightArm
					{
						OFFSET -0.096012 0.032551 -0.009143
						CHANNELS 3 Zrotation Yrotation Xrotation
						JOINT RightForeArm
						{
							OFFSET -0.253742 -0.013329 -0.021401
							CHANNELS 3 Zrotation Yrotation Xrotation
							JOINT RightHand
							{
								OFFSET -0.255298 0.007772 -0.005559
								CHANNELS 3 Zrotation Yrotation Xrotation
								End Site
								{
									OFFSET 0.000000 0.000000 0.000000
								}
							}
						}
					}
				}
			}
		}
	}
}
MOTION
Frames: 9
Frame Time: 0.050000
0.000000 0.964773 0.000000 -1.032121 -1.139839 -2.702390 -0.152327 0.338200 3.596466 2.188728 -0.248194 0.035183 -3.583413 -1.505889 11.875505 0.000000 0.000000 0.000000 3.738352 -0.735342 5.046519 -2.303867 0.230254 -0.214298 2.546120 -0.796015 13.262601 0.000000 0.000000 0.000000 -1.864081 -0.133172 5.445455 -1.754047 0.827614 6.873906 0.508332 1.327801 -4.658396 0.491567 -0.548569 1.727096 0.000000 0.000000 0.000000 -30.851044 -1.205015 -3.102112 -40.907932 4.378659 -5.365889 -6.918884 -26.584460 2.495742 0.000000 0.000000 0.000000 28.284233 2.165542 -1.565820 45.544270 -5.031355 -5.422122 15.946477 32.256344 5.315091 0.000000 0.000000 0.000000 
-0.000218 0.962876 0.000661 -0.780641 -0.650239 -2.246697 -0.156953 0.322297 3.442535 2.280739 -0.219565 -0.647416 -4.534252 -3.099270 11.785657 0.000000 0.000000 0.000000 3.049898 -0.669109 4.832197 -1.825582 0.171423 -0.398159 2.760789 0.045398 12.458047 0.000000 0.000000 0.000000 -2.194528 -0.089804 4.260119 -1.769092 0.807568 9.160685 0.451294 0.705646 -6.462413 0.116056 -0.097603 0.026967 0.000000 0.000000 0.000000 -29.760225 -0.673275 -3.255044 -42.839292 4.474502 -5.570026 -5.169090 -27.063495 2.111584 0.000000 0.000000 0.000000 27.688704 2.033687 -1.814974 46.263050 -6.903494 -5.991146 16.622804 34.409556 5.847987 0.000000 0.000000 0.000000 
-0.000137 0.961990 0.001098 -0.542762 -0.471220 -1.792419 -0.574686 0.243960 2.476718 2.991639 -0.358294 0.423237 -5.110565 -4.442485 11.031795 0.000000 0.000000 0.000000 2.794224 -0.616181 4.507899 -1.669638 0.158440 -0.346769 2.396949 -0.238777 11.557401 0.000000 0.000000 0.000000 -1.629541 -0.113332 4.424881 -1.751525 0.801763 6.956816 0.006582 0.138669 -4.619663 0.061620 -0.072518 0.302425 0.000000 0.000000 0.000000 -30.107323 -1.121693 -2.775017 -42.522871 3.791692 -5.487226 -4.202356 -25.455591 1.810301 0.000000 0.000000 0.000000 28.542657 2.659830 -1.549851 45.919062 -6.927250 -6.072459 13.646848 34.225415 4.946406 0.000000 0.000000 0.000000 
-0.000002 0.962429 0.001306 -0.411102 -0.304659 -2.007167 -0.619571 0.262798 2.662204 3.410479 -0.402374 0.367508 -6.201852 -6.006853 11.616649 0.000000 0.000000 0.000000 2.815082 -0.642202 4.716926 -1.550036 0.154927 -0.192215 1.764825 -1.384796 11.381872 0.000000 0.000000 0.000000 -1.790323 -0.110140 4.519926 -1.761938 0.796220 7.832150 0.190231 -0.444488 -5.345997 0.036840 -0.046740 0.335661 0.000000 0.000000 0.000000 -30.479761 -0.760066 -2.868118 -42.283361 4.239736 -5.606243 -3.653582 -25.837986 1.733126 0.000000 0.000000 0.000000 28.842103 3.258720 -1.444450 45.307840 -7.224621 -5.962189 13.333526 33.972350 4.756426 0.000000 0.000000 0.000000 
0.000319 0.962618 0.001335 -0.387144 -0.407479 -2.078851 -0.778804 0.251205 2.494388 3.472376 -0.448380 0.956413 -5.895518 -5.682432 11.256747 0.000000 0.000000 0.000000 2.790797 -0.657349 4.856452 -1.696687 0.170935 -0.175191 1.918203 -1.014577 11.186927 0.000000 0.000000 0.000000 -1.164298 -0.151073 5.014855 -2.065430 0.973856 7.872067 0.279265 -0.716717 -5.673285 0.030876 -0.011213 -0.003665 0.000000 0.000000 0.000000 -30.898984 -1.255027 -2.465593 -41.992038 4.460242 -5.647470 -3.683239 -25.363882 1.719358 0.000000 0.000000 0.000000 28.702707 3.187254 -1.623553 45.763218 -7.076184 -5.917016 12.082271 33.158969 4.242624 0.000000 0.000000 0.000000 
0.000784 0.962712 0.001191 -0.234233 -0.228386 -2.099226 -1.035693 0.244582 2.357089 3.327603 -0.454217 1.333934 -5.503579 -5.169388 10.892194 0.000000 0.000000 0.000000 2.750671 -0.683688 5.086694 -1.883900 0.190126 -0.193651 1.722381 -1.101018 10.532320 0.000000 0.000000 0.000000 -1.135527 -0.167744 5.519050 -1.916071 0.885108 7.317178 0.289855 -1.315095 -5.373938 -0.155323 0.182164 -0.684025 0.000000 0.000000 0.000000 -31.230861 -1.139804 -2.349162 -41.764403 4.716025 -5.781946 -4.014904 -25.449525 1.826486 0.000000 0.000000 0.000000 28.723305 3.553301 -1.583903 45.492297 -7.046666 -5.833476 11.867836 32.434957 4.047364 0.000000 0.000000 0.000000 
0.001212 0.962700 0.000552 -0.105756 -0.038006 -2.105574 -1.078506 0.249795 2.398261 3.195827 -0.422007 1.088079 -5.751136 -5.434120 11.164014 0.000000 0.000000 0.000000 2.778836 -0.669338 4.954737 -1.988429 0.224919 0.209698 1.318102 -1.670053 10.007962 0.000000 0.000000 0.000000 -1.021136 -0.186181 5.919174 -1.821459 0.826236 7.229228 0.205488 -1.734505 -5.161343 -0.073483 0.175654 -1.501214 0.000000 0.000000 0.000000 -31.395773 -1.347395 -2.089282 -41.750347 4.786730 -5.854860 -4.692098 -25.276963 1.978094 0.000000 0.000000 0.000000 28.695154 3.727690 -1.581645 45.629072 -6.552731 -5.660318 11.504904 31.398342 3.789745 0.000000 0.000000 0.000000 
0.001357 0.962652 -0.000686 0.038986 -0.104847 -2.287071 -1.230441 0.209473 1.965987 3.254256 -0.499073 2.189038 -5.799170 -5.711775 10.819633 0.000000 0.000000 0.000000 2.775374 -0.644415 4.769212 -1.975047 0.244480 0.579787 0.897302 -2.565403 10.094871 0.000000 0.000000 0.000000 -1.068571 -0.213902 6.885097 -1.756984 0.793808 7.128253 0.290120 -2.142689 -4.803092 -0.068375 0.191866 -1.854220 0.000000 0.000000 0.000000 -31.510073 -1.530304 -1.763740 -41.481396 5.174917 -6.023221 -5.920818 -25.830326 2.327199 0.000000 0.000000 0.000000 28.489388 4.002945 -1.552710 45.769296 -6.411807 -5.614971 11.442679 31.454147 3.750851 0.000000 0.000000 0.000000 
0.001025 0.962582 -0.002799 0.072366 0.122113 -2.363723 -1.313820 0.154461 1.413588 3.411920 -0.579594 3.121643 -5.857398 -5.940103 10.530903 0.000000 0.000000 0.000000 2.967177 -0.587813 4.231445 -1.813316 0.274462 1.432508 0.125982 -4.017103 9.908498 0.000000 0.000000 0.000000 -1.128722 -0.245592 8.001944 -1.508481 0.651366 6.758057 0.203218 -2.397213 -4.146352 -0.126536 0.266053 -2.445835 0.000000 0.000000 0.000000 -31.537143 -1.781845 -1.510738 -41.307148 5.150539 -6.056951 -6.860154 -26.006441 2.569913 0.000000 0.000000 0.000000 28.648370 4.401527 -1.335253 45.519295 -6.383590 -5.610353 11.644848 31.575388 3.824979 0.000000 0.000000 0.000000 
